<mxfile host="app.diagrams.net" modified="2021-04-11T13:30:12.859Z" agent="5.0 (Windows NT 10.0; Win64; x64) AppleWebKit/537.36 (KHTML, like Gecko) Chrome/89.0.4389.114 Safari/537.36" etag="na-EcgNHa97wDjgr0PrK" version="14.5.10" type="github">
  <diagram id="C5RBs43oDa-KdzZeNtuy" name="Page-1">
    <mxGraphModel dx="2249" dy="772" grid="1" gridSize="10" guides="1" tooltips="1" connect="1" arrows="1" fold="1" page="1" pageScale="1" pageWidth="827" pageHeight="1169" math="0" shadow="0">
      <root>
        <mxCell id="WIyWlLk6GJQsqaUBKTNV-0" />
        <mxCell id="WIyWlLk6GJQsqaUBKTNV-1" parent="WIyWlLk6GJQsqaUBKTNV-0" />
        <mxCell id="j4OwykT1YIiqYT3F0PSi-14" value="" style="edgeStyle=orthogonalEdgeStyle;curved=0;rounded=1;sketch=0;orthogonalLoop=1;jettySize=auto;html=1;" parent="WIyWlLk6GJQsqaUBKTNV-1" source="WIyWlLk6GJQsqaUBKTNV-3" target="j4OwykT1YIiqYT3F0PSi-13" edge="1">
          <mxGeometry relative="1" as="geometry" />
        </mxCell>
        <mxCell id="j4OwykT1YIiqYT3F0PSi-21" value="" style="edgeStyle=orthogonalEdgeStyle;curved=0;rounded=1;sketch=0;orthogonalLoop=1;jettySize=auto;html=1;" parent="WIyWlLk6GJQsqaUBKTNV-1" source="WIyWlLk6GJQsqaUBKTNV-3" target="j4OwykT1YIiqYT3F0PSi-20" edge="1">
          <mxGeometry relative="1" as="geometry" />
        </mxCell>
        <mxCell id="WIyWlLk6GJQsqaUBKTNV-3" value="&lt;font style=&quot;font-size: 12px&quot;&gt;Есть финансовая &quot;подушка безопасности&quot;&lt;/font&gt;" style="rounded=1;whiteSpace=wrap;html=1;fontSize=12;glass=0;strokeWidth=1;shadow=0;fillColor=#dae8fc;strokeColor=#6c8ebf;" parent="WIyWlLk6GJQsqaUBKTNV-1" vertex="1">
          <mxGeometry x="370" y="10" width="140" height="60" as="geometry" />
        </mxCell>
        <mxCell id="j4OwykT1YIiqYT3F0PSi-12" value="" style="edgeStyle=orthogonalEdgeStyle;curved=0;rounded=1;sketch=0;orthogonalLoop=1;jettySize=auto;html=1;" parent="WIyWlLk6GJQsqaUBKTNV-1" source="j4OwykT1YIiqYT3F0PSi-10" target="j4OwykT1YIiqYT3F0PSi-11" edge="1">
          <mxGeometry relative="1" as="geometry" />
        </mxCell>
        <mxCell id="j4OwykT1YIiqYT3F0PSi-18" value="" style="edgeStyle=orthogonalEdgeStyle;curved=0;rounded=1;sketch=0;orthogonalLoop=1;jettySize=auto;html=1;" parent="WIyWlLk6GJQsqaUBKTNV-1" source="j4OwykT1YIiqYT3F0PSi-10" target="j4OwykT1YIiqYT3F0PSi-17" edge="1">
          <mxGeometry relative="1" as="geometry" />
        </mxCell>
        <mxCell id="j4OwykT1YIiqYT3F0PSi-10" value="&lt;font style=&quot;font-size: 12px&quot;&gt;Есть доход, облагаемый НДФЛ?&lt;/font&gt;" style="rounded=1;whiteSpace=wrap;html=1;fontSize=12;glass=0;strokeWidth=1;shadow=0;fillColor=#dae8fc;strokeColor=#6c8ebf;" parent="WIyWlLk6GJQsqaUBKTNV-1" vertex="1">
          <mxGeometry x="660" y="180" width="120" height="60" as="geometry" />
        </mxCell>
        <mxCell id="j4OwykT1YIiqYT3F0PSi-11" value="&lt;font style=&quot;font-size: 12px&quot;&gt;Используйте ИИС тип А&lt;/font&gt;" style="rounded=1;whiteSpace=wrap;html=1;fontSize=12;glass=0;strokeWidth=1;shadow=0;" parent="WIyWlLk6GJQsqaUBKTNV-1" vertex="1">
          <mxGeometry x="707" y="300" width="120" height="40" as="geometry" />
        </mxCell>
        <mxCell id="j4OwykT1YIiqYT3F0PSi-13" value="&lt;font style=&quot;font-size: 12px&quot;&gt;&lt;span style=&quot;color: rgb(0 , 0 , 0) ; font-family: &amp;#34;helvetica&amp;#34; ; font-style: normal ; font-weight: 400 ; letter-spacing: normal ; text-align: center ; text-indent: 0px ; text-transform: none ; word-spacing: 0px ; background-color: rgb(248 , 249 , 250) ; display: inline ; float: none&quot;&gt;Сформируйте подушку на 3-6 месяцев -&lt;span&gt;&amp;nbsp;&lt;/span&gt;&lt;/span&gt;&lt;b style=&quot;color: rgb(0 , 0 , 0) ; font-family: &amp;#34;helvetica&amp;#34; ; font-style: normal ; letter-spacing: normal ; text-align: center ; text-indent: 0px ; text-transform: none ; word-spacing: 0px ; background-color: rgb(248 , 249 , 250)&quot;&gt;Накопительная на 1-3 года&lt;/b&gt;&lt;br&gt;&lt;/font&gt;" style="whiteSpace=wrap;html=1;rounded=1;shadow=0;strokeWidth=1;glass=0;" parent="WIyWlLk6GJQsqaUBKTNV-1" vertex="1">
          <mxGeometry x="620" y="60" width="155" height="70" as="geometry" />
        </mxCell>
        <mxCell id="j4OwykT1YIiqYT3F0PSi-17" value="&lt;font style=&quot;font-size: 12px&quot;&gt;Используйте ИИС тип Б&lt;/font&gt;" style="rounded=1;whiteSpace=wrap;html=1;fontSize=12;glass=0;strokeWidth=1;shadow=0;" parent="WIyWlLk6GJQsqaUBKTNV-1" vertex="1">
          <mxGeometry x="555" y="300" width="120" height="40" as="geometry" />
        </mxCell>
        <mxCell id="j4OwykT1YIiqYT3F0PSi-19" value="&lt;span style=&quot;font-size: 26px&quot;&gt;&lt;br&gt;&lt;/span&gt;" style="edgeLabel;html=1;align=center;verticalAlign=middle;resizable=0;points=[];" parent="WIyWlLk6GJQsqaUBKTNV-1" vertex="1" connectable="0">
          <mxGeometry x="270" y="30" as="geometry">
            <mxPoint x="38" y="166" as="offset" />
          </mxGeometry>
        </mxCell>
        <mxCell id="j4OwykT1YIiqYT3F0PSi-33" value="" style="edgeStyle=orthogonalEdgeStyle;curved=0;rounded=1;sketch=0;orthogonalLoop=1;jettySize=auto;html=1;" parent="WIyWlLk6GJQsqaUBKTNV-1" source="j4OwykT1YIiqYT3F0PSi-20" target="j4OwykT1YIiqYT3F0PSi-32" edge="1">
          <mxGeometry relative="1" as="geometry" />
        </mxCell>
        <mxCell id="j4OwykT1YIiqYT3F0PSi-40" value="" style="edgeStyle=orthogonalEdgeStyle;curved=0;rounded=1;sketch=0;orthogonalLoop=1;jettySize=auto;html=1;" parent="WIyWlLk6GJQsqaUBKTNV-1" source="j4OwykT1YIiqYT3F0PSi-20" target="j4OwykT1YIiqYT3F0PSi-39" edge="1">
          <mxGeometry relative="1" as="geometry" />
        </mxCell>
        <mxCell id="j4OwykT1YIiqYT3F0PSi-20" value="&lt;font style=&quot;font-size: 12px&quot;&gt;Есть ипотека&lt;/font&gt;" style="rounded=1;whiteSpace=wrap;html=1;fontSize=12;glass=0;strokeWidth=1;shadow=0;fillColor=#dae8fc;strokeColor=#6c8ebf;" parent="WIyWlLk6GJQsqaUBKTNV-1" vertex="1">
          <mxGeometry x="170" y="80" width="100" height="40" as="geometry" />
        </mxCell>
        <mxCell id="j4OwykT1YIiqYT3F0PSi-28" value="Повысьте финансовую грамотность:&amp;nbsp;&lt;br&gt;https://www.finam.ru/landings/about-education/" style="whiteSpace=wrap;html=1;rounded=1;shadow=0;strokeWidth=1;glass=0;" parent="WIyWlLk6GJQsqaUBKTNV-1" vertex="1">
          <mxGeometry x="340" y="210" width="215" height="50" as="geometry" />
        </mxCell>
        <mxCell id="j4OwykT1YIiqYT3F0PSi-35" value="" style="edgeStyle=orthogonalEdgeStyle;curved=0;rounded=1;sketch=0;orthogonalLoop=1;jettySize=auto;html=1;" parent="WIyWlLk6GJQsqaUBKTNV-1" source="j4OwykT1YIiqYT3F0PSi-30" target="j4OwykT1YIiqYT3F0PSi-28" edge="1">
          <mxGeometry relative="1" as="geometry" />
        </mxCell>
        <mxCell id="j4OwykT1YIiqYT3F0PSi-30" value="&lt;font&gt;Рантье&lt;br&gt;Еврооблигационная&lt;br&gt;&lt;/font&gt;&lt;h2 class=&quot;b-main-title float_left&quot; style=&quot;outline: none ; margin: 0px ; padding: 0px 0px 4px ; font-weight: normal ; font-stretch: normal ; line-height: 1.2 ; font-family: &amp;#34;arial&amp;#34; , sans-serif ; background-color: rgb(255 , 255 , 255)&quot;&gt;&lt;span style=&quot;font-size: 12px&quot;&gt;Дивидендная&lt;/span&gt;&lt;/h2&gt;&lt;div&gt;Гибридная&lt;/div&gt;" style="whiteSpace=wrap;html=1;rounded=1;shadow=0;strokeWidth=1;glass=0;" parent="WIyWlLk6GJQsqaUBKTNV-1" vertex="1">
          <mxGeometry x="380" y="100" width="120" height="70" as="geometry" />
        </mxCell>
        <mxCell id="j4OwykT1YIiqYT3F0PSi-34" value="" style="edgeStyle=orthogonalEdgeStyle;curved=0;rounded=1;sketch=0;orthogonalLoop=1;jettySize=auto;html=1;" parent="WIyWlLk6GJQsqaUBKTNV-1" source="j4OwykT1YIiqYT3F0PSi-32" target="j4OwykT1YIiqYT3F0PSi-30" edge="1">
          <mxGeometry relative="1" as="geometry">
            <Array as="points">
              <mxPoint x="440" y="190" />
            </Array>
          </mxGeometry>
        </mxCell>
        <mxCell id="j4OwykT1YIiqYT3F0PSi-32" value="&lt;span style=&quot;color: rgb(0 , 0 , 0) ; font-family: &amp;#34;helvetica&amp;#34; ; font-size: 12px ; font-style: normal ; font-weight: 400 ; letter-spacing: normal ; text-align: center ; text-indent: 0px ; text-transform: none ; word-spacing: 0px ; background-color: rgb(248 , 249 , 250) ; display: inline ; float: none&quot;&gt;Сформируйте капитал, который позволит обслуживать ипотеку из рентного дохода - &lt;/span&gt;&lt;span style=&quot;color: rgb(0 , 0 , 0) ; font-family: &amp;#34;helvetica&amp;#34; ; font-size: 12px ; font-style: normal ; letter-spacing: normal ; text-align: center ; text-indent: 0px ; text-transform: none ; word-spacing: 0px ; background-color: rgb(248 , 249 , 250) ; display: inline ; float: none&quot;&gt;&lt;b&gt;консервативно-умеренный, обязательно валюта&lt;/b&gt;&lt;/span&gt;" style="whiteSpace=wrap;html=1;rounded=1;shadow=0;strokeWidth=1;glass=0;" parent="WIyWlLk6GJQsqaUBKTNV-1" vertex="1">
          <mxGeometry x="110" y="190" width="170" height="90" as="geometry" />
        </mxCell>
        <mxCell id="j4OwykT1YIiqYT3F0PSi-42" value="" style="edgeStyle=orthogonalEdgeStyle;curved=0;rounded=1;sketch=0;orthogonalLoop=1;jettySize=auto;html=1;" parent="WIyWlLk6GJQsqaUBKTNV-1" source="j4OwykT1YIiqYT3F0PSi-39" target="j4OwykT1YIiqYT3F0PSi-41" edge="1">
          <mxGeometry relative="1" as="geometry" />
        </mxCell>
        <mxCell id="j4OwykT1YIiqYT3F0PSi-44" value="" style="edgeStyle=orthogonalEdgeStyle;curved=0;rounded=1;sketch=0;orthogonalLoop=1;jettySize=auto;html=1;" parent="WIyWlLk6GJQsqaUBKTNV-1" source="j4OwykT1YIiqYT3F0PSi-39" target="j4OwykT1YIiqYT3F0PSi-43" edge="1">
          <mxGeometry relative="1" as="geometry" />
        </mxCell>
        <mxCell id="j4OwykT1YIiqYT3F0PSi-39" value="Есть дети?" style="rounded=1;whiteSpace=wrap;html=1;fontSize=12;glass=0;strokeWidth=1;shadow=0;fillColor=#dae8fc;strokeColor=#6c8ebf;" parent="WIyWlLk6GJQsqaUBKTNV-1" vertex="1">
          <mxGeometry x="-20" y="340" width="120" height="30" as="geometry" />
        </mxCell>
        <mxCell id="j4OwykT1YIiqYT3F0PSi-46" value="" style="edgeStyle=orthogonalEdgeStyle;curved=0;rounded=1;sketch=0;orthogonalLoop=1;jettySize=auto;html=1;" parent="WIyWlLk6GJQsqaUBKTNV-1" source="j4OwykT1YIiqYT3F0PSi-41" target="j4OwykT1YIiqYT3F0PSi-45" edge="1">
          <mxGeometry relative="1" as="geometry" />
        </mxCell>
        <mxCell id="j4OwykT1YIiqYT3F0PSi-41" value="Есть капитал на образование" style="rounded=1;whiteSpace=wrap;html=1;fontSize=12;glass=0;strokeWidth=1;shadow=0;fillColor=#dae8fc;strokeColor=#6c8ebf;" parent="WIyWlLk6GJQsqaUBKTNV-1" vertex="1">
          <mxGeometry x="180" y="340" width="120" height="30" as="geometry" />
        </mxCell>
        <mxCell id="j4OwykT1YIiqYT3F0PSi-50" value="" style="edgeStyle=orthogonalEdgeStyle;curved=0;rounded=1;sketch=0;orthogonalLoop=1;jettySize=auto;html=1;" parent="WIyWlLk6GJQsqaUBKTNV-1" source="j4OwykT1YIiqYT3F0PSi-43" target="j4OwykT1YIiqYT3F0PSi-49" edge="1">
          <mxGeometry relative="1" as="geometry" />
        </mxCell>
        <mxCell id="j4OwykT1YIiqYT3F0PSi-43" value="Верите в пенсию?" style="rounded=1;whiteSpace=wrap;html=1;fontSize=12;glass=0;strokeWidth=1;shadow=0;fillColor=#dae8fc;strokeColor=#6c8ebf;" parent="WIyWlLk6GJQsqaUBKTNV-1" vertex="1">
          <mxGeometry x="-220" y="340" width="120" height="30" as="geometry" />
        </mxCell>
        <mxCell id="j4OwykT1YIiqYT3F0PSi-45" value="Портфель на 5-15 лет &lt;b&gt;- умеренный&lt;/b&gt;" style="rounded=1;whiteSpace=wrap;html=1;fontSize=12;glass=0;strokeWidth=1;shadow=0;" parent="WIyWlLk6GJQsqaUBKTNV-1" vertex="1">
          <mxGeometry x="380" y="340" width="120" height="30" as="geometry" />
        </mxCell>
        <mxCell id="j4OwykT1YIiqYT3F0PSi-52" value="" style="edgeStyle=orthogonalEdgeStyle;curved=0;rounded=1;sketch=0;orthogonalLoop=1;jettySize=auto;html=1;" parent="WIyWlLk6GJQsqaUBKTNV-1" source="j4OwykT1YIiqYT3F0PSi-49" target="j4OwykT1YIiqYT3F0PSi-51" edge="1">
          <mxGeometry relative="1" as="geometry" />
        </mxCell>
        <mxCell id="j4OwykT1YIiqYT3F0PSi-49" value="Формируем пенсионный портфель &lt;b&gt;- умеренный&lt;/b&gt;" style="rounded=1;whiteSpace=wrap;html=1;fontSize=12;glass=0;strokeWidth=1;shadow=0;" parent="WIyWlLk6GJQsqaUBKTNV-1" vertex="1">
          <mxGeometry x="-230" y="450" width="130" height="50" as="geometry" />
        </mxCell>
        <mxCell id="j4OwykT1YIiqYT3F0PSi-54" value="" style="edgeStyle=orthogonalEdgeStyle;curved=0;rounded=1;sketch=0;orthogonalLoop=1;jettySize=auto;html=1;" parent="WIyWlLk6GJQsqaUBKTNV-1" source="j4OwykT1YIiqYT3F0PSi-51" target="j4OwykT1YIiqYT3F0PSi-53" edge="1">
          <mxGeometry relative="1" as="geometry" />
        </mxCell>
        <mxCell id="j4OwykT1YIiqYT3F0PSi-60" value="" style="edgeStyle=orthogonalEdgeStyle;curved=0;rounded=1;sketch=0;orthogonalLoop=1;jettySize=auto;html=1;" parent="WIyWlLk6GJQsqaUBKTNV-1" source="j4OwykT1YIiqYT3F0PSi-51" target="j4OwykT1YIiqYT3F0PSi-59" edge="1">
          <mxGeometry relative="1" as="geometry" />
        </mxCell>
        <mxCell id="j4OwykT1YIiqYT3F0PSi-51" value="Капитал более 8,5 млн. руб?" style="rounded=1;whiteSpace=wrap;html=1;fontSize=12;glass=0;strokeWidth=1;shadow=0;fillColor=#dae8fc;strokeColor=#6c8ebf;" parent="WIyWlLk6GJQsqaUBKTNV-1" vertex="1">
          <mxGeometry x="-20" y="450" width="130" height="50" as="geometry" />
        </mxCell>
        <mxCell id="j4OwykT1YIiqYT3F0PSi-53" value="https://broker.finam.ru/premium/&lt;br&gt;+&lt;br&gt;налоговая, наследственная поддержка" style="rounded=1;whiteSpace=wrap;html=1;fontSize=12;glass=0;strokeWidth=1;shadow=0;" parent="WIyWlLk6GJQsqaUBKTNV-1" vertex="1">
          <mxGeometry x="190" y="400" width="210" height="60" as="geometry" />
        </mxCell>
        <mxCell id="j4OwykT1YIiqYT3F0PSi-59" value="Инвестиционный советник:&amp;nbsp;&lt;br&gt;https://www.finam.ru/landings/investment-consulting/" style="rounded=1;whiteSpace=wrap;html=1;fontSize=12;glass=0;strokeWidth=1;shadow=0;" parent="WIyWlLk6GJQsqaUBKTNV-1" vertex="1">
          <mxGeometry x="170" y="500" width="240" height="50" as="geometry" />
        </mxCell>
        <mxCell id="j4OwykT1YIiqYT3F0PSi-63" value="" style="edgeStyle=orthogonalEdgeStyle;curved=0;rounded=1;sketch=0;orthogonalLoop=1;jettySize=auto;html=1;" parent="WIyWlLk6GJQsqaUBKTNV-1" source="j4OwykT1YIiqYT3F0PSi-61" target="j4OwykT1YIiqYT3F0PSi-62" edge="1">
          <mxGeometry relative="1" as="geometry" />
        </mxCell>
        <mxCell id="j4OwykT1YIiqYT3F0PSi-61" value="Спекулятивный\хедж портфель на 10-20%:" style="rounded=1;whiteSpace=wrap;html=1;fontSize=12;glass=0;strokeWidth=1;shadow=0;fillColor=#dae8fc;strokeColor=#6c8ebf;" parent="WIyWlLk6GJQsqaUBKTNV-1" vertex="1">
          <mxGeometry x="590" y="410" width="150" height="60" as="geometry" />
        </mxCell>
        <mxCell id="j4OwykT1YIiqYT3F0PSi-62" value="Демарко&lt;br&gt;Трендо-флетовая&lt;br&gt;ИИП Ва-банк&lt;br&gt;Биохимия\фармацевтика" style="rounded=1;whiteSpace=wrap;html=1;fontSize=12;glass=0;strokeWidth=1;shadow=0;" parent="WIyWlLk6GJQsqaUBKTNV-1" vertex="1">
          <mxGeometry x="570" y="520" width="150" height="60" as="geometry" />
        </mxCell>
        <mxCell id="j4OwykT1YIiqYT3F0PSi-71" value="&lt;font style=&quot;font-size: 20px&quot;&gt;+80% валюта&lt;br&gt;+Довнесения&lt;br&gt;+Максимальное разнообразие&lt;/font&gt;" style="rounded=1;whiteSpace=wrap;html=1;fontSize=12;glass=0;strokeWidth=1;shadow=0;fillColor=#d5e8d4;strokeColor=#82b366;" parent="WIyWlLk6GJQsqaUBKTNV-1" vertex="1">
          <mxGeometry x="-220" y="110" width="187.5" height="120" as="geometry" />
        </mxCell>
        <mxCell id="j4OwykT1YIiqYT3F0PSi-97" value="" style="shape=cross;whiteSpace=wrap;html=1;rounded=1;shadow=0;glass=0;strokeWidth=1;gradientColor=#b3b3b3;fillColor=#f5f5f5;strokeColor=#666666;" parent="WIyWlLk6GJQsqaUBKTNV-1" vertex="1">
          <mxGeometry x="460" y="420" width="80" height="80" as="geometry" />
        </mxCell>
        <mxCell id="j4OwykT1YIiqYT3F0PSi-99" value="" style="shape=cross;whiteSpace=wrap;html=1;rounded=1;shadow=0;glass=0;strokeWidth=1;gradientColor=#b3b3b3;fillColor=#f5f5f5;strokeColor=#666666;" parent="WIyWlLk6GJQsqaUBKTNV-1" vertex="1">
          <mxGeometry x="570" y="140" width="60" height="60" as="geometry" />
        </mxCell>
      </root>
    </mxGraphModel>
  </diagram>
</mxfile>
